<?xml version="1.0" ?><!DOCTYPE svg  PUBLIC '-//W3C//DTD SVG 1.1//EN'  'http://www.w3.org/Graphics/SVG/1.1/DTD/svg11.dtd'><svg enable-background="new 0 0 64 64" height="64px" id="Windows_8" version="1.1" viewBox="0 0 64 64" width="64px" xml:space="preserve" xmlns="http://www.w3.org/2000/svg" xmlns:xlink="http://www.w3.org/1999/xlink"><linearGradient gradientTransform="matrix(1 0 0 1 -2192 -2908)" gradientUnits="userSpaceOnUse" id="Circle_Shadow_1_" x1="2256.0293" x2="2224.03" y1="2972" y2="2940.0007"><stop offset="0.3163" style="stop-color:#FFFFFF;stop-opacity:0"/><stop offset="0.3508" style="stop-color:#E9E9E9;stop-opacity:0.0504"/><stop offset="0.4543" style="stop-color:#ACACAC;stop-opacity:0.2018"/><stop offset="0.5572" style="stop-color:#787878;stop-opacity:0.3523"/><stop offset="0.6569" style="stop-color:#4D4D4D;stop-opacity:0.4981"/><stop offset="0.7528" style="stop-color:#2B2B2B;stop-opacity:0.6385"/><stop offset="0.8441" style="stop-color:#131313;stop-opacity:0.7719"/><stop offset="0.9286" style="stop-color:#050505;stop-opacity:0.8956"/><stop offset="1" style="stop-color:#000000"/></linearGradient><polygon enable-background="new    " fill="url(#Circle_Shadow_1_)" id="Circle_Shadow" opacity="0.2" points="64.029,64   64.029,30.059 49,15.029 15.059,48.971 30.088,64 "/><circle cx="32" cy="32" fill="#0CB3EE" id="Circle" r="24"/><g id="Win8_shadow"><g><defs><circle cx="32.029" cy="32" id="SVGID_1_" r="24"/></defs><clipPath id="SVGID_2_"><use overflow="visible" xlink:href="#SVGID_1_"/></clipPath><linearGradient gradientTransform="matrix(1 0 0 -1 -274 -299)" gradientUnits="userSpaceOnUse" id="SVGID_3_" x1="354.001" x2="294.2512" y1="-376.9985" y2="-317.2487"><stop offset="0.5612" style="stop-color:#000000;stop-opacity:0"/><stop offset="0.7041" style="stop-color:#000000"/></linearGradient><polygon clip-path="url(#SVGID_2_)" enable-background="new    " fill="url(#SVGID_3_)" opacity="0.2" points="79,63 79,49     78.895,49.014 78.895,48.895 78.787,48.907 78.787,48.787 78.682,48.801 78.682,48.682 78.574,48.693 78.574,48.575     78.469,48.588 78.469,48.469 78.361,48.482 78.361,48.361 78.256,48.376 78.256,48.256 78.148,48.27 78.148,48.148 78.043,48.163     78.043,48.043 77.938,48.057 77.938,47.938 77.831,47.949 77.831,47.83 77.725,47.844 77.725,47.725 77.618,47.738 77.618,47.618     77.512,47.632 77.512,47.512 77.404,47.525 77.404,47.404 77.299,47.419 77.299,47.299 77.191,47.313 77.191,47.191     77.086,47.206 77.086,47.086 76.98,47.1 76.98,46.98 76.874,46.994 76.874,46.874 76.768,46.889 76.768,46.768 76.661,46.781     76.661,46.661 76.555,46.675 76.555,46.555 76.448,46.568 76.448,46.448 76.342,46.462 76.342,46.342 76.236,46.355     76.236,46.236 76.13,46.25 76.13,46.13 76.023,46.145 76.023,46.023 75.917,46.037 75.917,45.917 75.811,45.932 75.811,45.811     75.704,45.824 75.704,45.704 75.598,45.718 75.598,45.6 75.491,45.611 75.491,45.491 75.387,45.504 75.387,45.386 75.279,45.398     75.279,45.279 75.173,45.293 75.173,45.173 75.066,45.188 75.066,45.066 74.96,45.08 74.96,44.96 74.854,44.975 74.854,44.854     74.748,44.867 74.748,44.747 74.641,44.761 74.641,44.641 74.535,44.654 74.535,44.535 74.43,44.549 74.43,44.43 74.322,44.441     74.322,44.322 74.216,44.336 74.216,44.216 74.109,44.229 74.109,44.109 74.004,44.123 74.004,44.004 73.896,44.018     73.896,43.896 73.791,43.91 73.791,43.791 73.686,43.805 73.686,43.686 73.578,43.698 73.578,43.578 73.473,43.592 73.473,43.473     73.365,43.484 73.365,43.365 73.259,43.379 73.259,43.26 73.152,43.273 73.152,43.152 73.047,43.166 73.047,43.047 72.939,43.061     72.939,42.939 72.834,42.954 72.834,42.834 72.729,42.848 72.729,42.729 72.621,42.741 72.621,42.621 72.516,42.635     72.516,42.516 72.408,42.527 72.408,42.409 72.303,42.422 72.303,42.303 72.195,42.316 72.195,42.195 72.09,42.209 72.09,42.09     71.982,42.104 71.982,41.982 71.877,41.997 71.877,41.877 71.771,41.891 71.771,41.771 71.665,41.783 71.665,41.665 71.559,41.68     71.559,41.559 71.452,41.57 71.452,41.452 71.346,41.466 71.346,41.346 71.238,41.359 71.238,41.239 71.133,41.253 71.133,41.133     71.025,41.146 71.025,41.025 70.92,41.04 70.92,40.92 70.813,40.934 70.813,40.814 70.708,40.828 70.708,40.707 70.602,40.721     70.602,40.602 70.495,40.615 70.495,40.495 70.389,40.509 70.389,40.389 70.283,40.402 70.283,40.282 70.176,40.296     70.176,40.176 70.07,40.189 70.07,40.07 69.963,40.084 69.963,39.963 69.857,39.977 69.857,39.857 69.751,39.871 69.751,39.751     69.645,39.766 69.645,39.645 69.538,39.658 69.538,39.538 69.432,39.552 69.432,39.432 69.326,39.445 69.326,39.326 69.221,39.34     69.221,39.221 69.113,39.232 69.113,39.113 69.007,39.127 69.007,39.007 68.9,39.021 68.9,38.9 68.794,38.914 68.794,38.794     68.688,38.809 68.688,38.688 68.581,38.701 68.581,38.582 68.475,38.596 68.475,38.477 68.369,38.488 68.369,38.369     68.264,38.383 68.264,38.264 68.156,38.275 68.156,38.156 68.05,38.17 68.05,38.05 67.943,38.063 67.943,37.943 67.838,37.957     67.838,37.837 67.73,37.852 67.73,37.73 67.625,37.744 67.625,37.625 67.52,37.639 67.52,37.518 67.412,37.531 67.412,37.412     67.307,37.426 67.307,37.307 67.199,37.318 67.199,37.199 67.093,37.213 67.093,37.093 66.986,37.105 66.986,36.986 66.881,37     66.881,36.881 66.773,36.895 66.773,36.773 66.668,36.787 66.668,36.668 66.563,36.682 66.563,36.563 66.455,36.575     66.455,36.455 66.35,36.469 66.35,36.35 66.242,36.361 66.242,36.242 66.137,36.256 66.137,36.137 66.029,36.15 66.029,36.029     65.924,36.043 65.924,35.924 65.816,35.938 65.816,35.816 65.711,35.831 65.711,35.711 65.605,35.725 65.605,35.605     65.498,35.619 65.498,35.498 65.393,35.512 65.393,35.393 65.285,35.406 65.285,35.286 65.18,35.299 65.18,35.18 65.073,35.193     65.073,35.073 64.967,35.087 64.967,34.967 64.859,34.98 64.859,34.859 64.754,34.874 64.754,34.754 64.646,34.768 64.646,34.646     64.542,34.66 64.542,34.542 64.436,34.557 64.436,34.436 64.329,34.449 64.329,34.329 64.223,34.343 64.223,34.223 64.116,34.236     64.116,34.116 64.01,34.13 64.01,34.01 63.902,34.023 63.902,33.902 63.797,33.917 63.797,33.797 63.691,33.811 63.691,33.691     63.585,33.705 63.585,33.585 63.479,33.6 63.479,33.479 63.372,33.492 63.372,33.372 63.266,33.386 63.266,33.266 63.16,33.279     63.16,33.159 63.053,33.173 63.053,33.053 62.947,33.066 62.947,32.945 62.841,32.96 62.841,32.841 62.734,32.854 62.734,32.734     62.628,32.748 62.628,32.628 62.521,32.643 62.521,32.521 62.416,32.535 62.416,32.415 62.309,32.429 62.309,32.31 62.203,32.323     62.203,32.203 62.098,32.216 62.098,32.097 61.99,32.11 61.99,31.99 61.884,32.003 61.884,31.884 61.777,31.897 61.777,31.777     61.671,31.791 61.671,31.671 61.564,31.684 61.564,31.564 61.459,31.578 61.459,31.459 61.352,31.473 61.352,31.352     61.246,31.365 61.246,31.246 61.141,31.259 61.141,31.14 61.033,31.153 61.033,31.033 60.927,31.046 60.927,30.927 60.82,30.94     60.82,30.82 60.715,30.833 60.715,30.715 60.607,30.728 60.607,30.608 60.502,30.622 60.502,30.502 60.395,30.516 60.395,30.395     60.289,30.408 60.289,30.289 60.184,30.302 60.184,30.183 60.076,30.196 60.076,30.077 59.971,30.09 59.971,29.97 59.863,29.983     59.863,29.864 59.758,29.877 59.758,29.758 59.65,29.771 59.65,29.651 59.545,29.665 59.545,29.545 59.438,29.558 59.438,29.438     59.333,29.452 59.333,29.333 59.227,29.347 59.227,29.226 59.119,29.239 59.119,29.12 59.014,29.133 59.014,29.013 58.907,29.026     58.907,28.907 58.801,28.92 58.801,28.801 58.693,28.814 58.693,28.694 58.588,28.708 58.588,28.588 58.482,28.601 58.482,28.482     58.376,28.496 58.376,28.375 58.27,28.389 58.27,28.269 58.163,28.282 58.163,28.163 58.057,28.176 58.057,28.057 57.95,28.07     57.95,27.95 57.844,27.963 57.844,27.844 57.738,27.857 57.738,27.738 57.631,27.751 57.631,27.631 57.525,27.645 57.525,27.525     57.418,27.539 57.418,27.418 57.313,27.431 57.313,27.313 57.206,27.326 57.206,27.206 57.1,27.219 57.1,27.1 56.993,27.113     56.993,26.993 56.887,27.006 56.887,26.887 56.781,26.9 56.781,26.781 56.674,26.795 56.674,26.674 56.568,26.688 56.568,26.568     56.462,26.582 56.462,26.462 56.355,26.475 56.355,26.356 56.249,26.369 56.249,26.249 56.143,26.262 56.143,26.143     56.037,26.156 56.037,26.036 55.932,26.049 55.932,25.931 55.824,25.944 55.824,25.824 55.717,25.837 55.717,25.718     55.611,25.731 55.611,25.611 55.505,25.625 55.505,25.505 55.398,25.519 55.398,25.399 55.292,25.412 55.292,25.292     55.186,25.305 55.186,25.187 55.08,25.2 55.08,25.08 54.975,25.093 54.975,24.974 54.867,24.987 54.867,24.867 54.762,24.88     54.762,24.761 54.654,24.774 54.654,24.654 54.548,24.667 54.548,24.548 54.441,24.562 54.441,24.442 54.336,24.455     54.336,24.335 54.229,24.349 54.229,24.229 54.123,24.243 54.123,24.123 54.018,24.136 54.018,24.017 53.91,24.03 53.91,23.91     53.805,23.923 53.805,23.804 53.698,23.817 53.698,23.698 53.592,23.711 53.592,23.592 53.484,23.605 53.484,23.485     53.379,23.498 53.379,23.379 53.271,23.392 53.271,23.272 53.166,23.286 53.166,23.166 53.061,23.179 53.061,23.06 52.953,23.073     52.953,22.953 52.848,22.966 52.848,22.847 52.74,22.86 52.74,22.741 52.635,22.754 52.635,22.635 52.527,22.648 52.527,22.528     52.422,22.542 52.422,22.422 52.314,22.436 52.314,22.315 52.209,22.329 52.209,22.209 52.104,22.223 52.104,22.103     51.997,22.116 51.997,21.997 51.891,22.01 51.891,21.89 51.784,21.903 51.784,21.784 51.678,21.797 51.678,21.678 51.572,21.691     51.572,21.572 51.465,21.585 51.465,21.465 51.357,21.478 51.357,21.359 51.252,21.372 51.252,21.252 51.146,21.266     51.146,21.146 51.04,21.16 51.04,21.04 50.934,21.053 50.934,20.934 50.827,20.947 50.827,20.828 50.721,20.841 50.721,20.721     50.615,20.734 50.615,20.615 50.508,20.628 50.508,20.508 50.402,20.521 50.402,20.402 50.296,20.415 50.296,20.296     50.189,20.309 50.189,20.189 50.083,20.203 50.083,20.083 49.979,20.096 49.979,19.977 49.87,19.99 49.87,19.871 49.766,19.884     49.766,19.764 49.658,19.777 49.658,19.658 49.551,19.671 49.551,19.551 49.445,19.564 49.445,19.445 49.339,19.458     49.339,19.339 49.232,19.352 49.232,19.232 49.127,19.246 49.127,19.126 49.02,19.14 49.02,19.02 48.914,19.033 48.914,18.914     48.809,18.927 48.809,18.807 48.7,18.82 48.7,18.701 48.596,18.714 48.596,18.595 48.488,18.608 48.488,18.489 48.382,18.502     48.382,18.382 48.275,18.395 48.275,18.276 48.17,18.29 48.17,18.169 48.063,18.183 48.063,18.063 47.957,18.077 47.957,17.957     47.852,17.97 47.852,17.851 47.744,17.864 47.744,17.744 47.639,17.757 47.639,17.638 47.531,17.651 47.531,17.531 47.426,17.544     47.426,17.426 47.318,17.439 47.318,17.319 47.213,17.332 47.213,17.213 47.105,17.226 47.105,17.106 47,17.12 47,17 31,19     31,21.524 30.914,21.538 30.914,21.414 30.807,21.432 30.807,21.308 30.701,21.325 30.701,21.201 30.595,21.218 30.595,21.095     30.488,21.112 30.488,20.988 30.382,21.006 30.382,20.882 30.276,20.899 30.276,20.776 30.169,20.794 30.169,20.669     30.063,20.687 30.063,20.563 29.957,20.581 29.957,20.457 29.851,20.474 29.851,20.351 29.745,20.368 29.745,20.244     29.638,20.262 29.638,20.138 29.531,20.156 29.531,20.031 29.425,20.049 29.425,19.926 29.319,19.943 29.319,19.819     29.213,19.836 29.213,19.713 29.106,19.73 29.106,19.606 29,19.624 29,19.5 17,21.5 17,31 17.106,31 17.106,31.106 17.213,31.106     17.213,31.212 17.319,31.212 17.319,31.319 17.426,31.319 17.426,31.426 17.531,31.426 17.531,31.531 17.638,31.531     17.638,31.638 17.744,31.638 17.744,31.744 17.851,31.744 17.851,31.851 17.957,31.851 17.957,31.957 18.063,31.957     18.063,32.063 18.169,32.063 18.169,32.169 18.276,32.169 18.276,32.276 18.382,32.276 18.382,32.382 18.489,32.382     18.489,32.488 18.595,32.488 18.595,32.596 18.701,32.596 18.701,32.7 18.807,32.7 18.807,32.809 18.914,32.809 18.914,32.914     19.02,32.914 19.02,33 17,33 17,43 17.106,43.014 17.106,43.105 17.213,43.12 17.213,43.213 17.319,43.227 17.319,43.318     17.426,43.333 17.426,43.426 17.531,43.439 17.531,43.531 17.638,43.545 17.638,43.639 17.744,43.65 17.744,43.744 17.851,43.758     17.851,43.85 17.957,43.863 17.957,43.957 18.063,43.971 18.063,44.063 18.169,44.077 18.169,44.17 18.276,44.184 18.276,44.275     18.382,44.289 18.382,44.382 18.489,44.396 18.489,44.488 18.595,44.502 18.595,44.596 18.701,44.607 18.701,44.701     18.807,44.715 18.807,44.807 18.914,44.82 18.914,44.914 19.02,44.928 19.02,45.021 19.126,45.034 19.126,45.127 19.232,45.141     19.232,45.232 19.339,45.246 19.339,45.339 19.445,45.354 19.445,45.445 19.551,45.459 19.551,45.551 19.658,45.564     19.658,45.658 19.764,45.672 19.764,45.764 19.871,45.777 19.871,45.87 19.977,45.884 19.977,45.979 20.083,45.991 20.083,46.083     20.189,46.098 20.189,46.189 20.296,46.203 20.296,46.296 20.402,46.311 20.402,46.402 20.508,46.416 20.508,46.508     20.615,46.521 20.615,46.614 20.721,46.628 20.721,46.723 20.828,46.734 20.828,46.827 20.934,46.841 20.934,46.934 21.04,46.947     21.04,47.04 21.146,47.055 21.146,47.146 21.252,47.16 21.252,47.252 21.359,47.266 21.359,47.357 21.465,47.372 21.465,47.465     21.572,47.479 21.572,47.57 21.678,47.585 21.678,47.678 21.784,47.691 21.784,47.784 21.89,47.798 21.89,47.891 21.997,47.904     21.997,47.997 22.103,48.01 22.103,48.104 22.209,48.116 22.209,48.209 22.315,48.223 22.315,48.314 22.422,48.329 22.422,48.422     22.528,48.436 22.528,48.527 22.635,48.542 22.635,48.635 22.741,48.648 22.741,48.741 22.847,48.755 22.847,48.848     22.953,48.861 22.953,48.953 23.06,48.967 23.06,49.061 23.166,49.073 23.166,49.166 23.272,49.18 23.272,49.271 23.379,49.286     23.379,49.379 23.485,49.393 23.485,49.484 23.592,49.499 23.592,49.592 23.698,49.605 23.698,49.697 23.804,49.711     23.804,49.805 23.91,49.816 23.91,49.91 24.017,49.924 24.017,50.018 24.123,50.029 24.123,50.123 24.229,50.137 24.229,50.229     24.335,50.243 24.335,50.335 24.442,50.35 24.442,50.441 24.548,50.455 24.548,50.549 24.654,50.563 24.654,50.654 24.761,50.668     24.761,50.761 24.867,50.773 24.867,50.867 24.974,50.881 24.974,50.975 25.08,50.986 25.08,51.08 25.187,51.094 25.187,51.186     25.292,51.199 25.292,51.293 25.399,51.307 25.399,51.398 25.505,51.412 25.505,51.506 25.611,51.52 25.611,51.611 25.718,51.625     25.718,51.718 25.824,51.73 25.824,51.824 25.931,51.838 25.931,51.932 26.036,51.943 26.036,52.036 26.143,52.05 26.143,52.143     26.249,52.156 26.249,52.25 26.356,52.264 26.356,52.355 26.462,52.369 26.462,52.462 26.568,52.477 26.568,52.568 26.674,52.582     26.674,52.675 26.781,52.688 26.781,52.781 26.887,52.795 26.887,52.887 26.993,52.9 26.993,52.993 27.1,53.007 27.1,53.1     27.206,53.113 27.206,53.207 27.313,53.221 27.313,53.313 27.418,53.326 27.418,53.418 27.525,53.432 27.525,53.525     27.631,53.539 27.631,53.632 27.738,53.646 27.738,53.736 27.844,53.751 27.844,53.844 27.95,53.857 27.95,53.95 28.057,53.964     28.057,54.057 28.163,54.07 28.163,54.163 28.269,54.176 28.269,54.27 28.375,54.282 28.375,54.376 28.482,54.391 28.482,54.482     28.588,54.496 28.588,54.588 28.694,54.602 28.694,54.693 28.801,54.708 28.801,54.801 28.907,54.814 28.907,54.907     29.013,54.921 29.013,55.014 29.12,55.027 29.12,55.119 29.226,55.133 29.226,55.227 29.333,55.239 29.333,55.333 29.438,55.346     29.438,55.438 29.545,55.452 29.545,55.545 29.651,55.559 29.651,55.65 29.758,55.665 29.758,55.758 29.864,55.771 29.864,55.863     29.97,55.877 29.97,55.971 30.077,55.982 30.077,56.076 30.183,56.09 30.183,56.184 30.289,56.195 30.289,56.289 30.395,56.303     30.395,56.395 30.502,56.408 30.502,56.502 30.608,56.516 30.608,56.607 30.715,56.622 30.715,56.715 30.82,56.729 30.82,56.82     30.927,56.834 30.927,56.927 31.033,56.939 31.033,57.033 31.14,57.047 31.14,57.141 31.246,57.152 31.246,57.246 31.352,57.26     31.352,57.352 31.459,57.365 31.459,57.459 31.564,57.473 31.564,57.564 31.671,57.578 31.671,57.671 31.777,57.686     31.777,57.777 31.884,57.791 31.884,57.884 31.99,57.896 31.99,57.99 32.097,58.004 32.097,58.096 32.203,58.109 32.203,58.203     32.31,58.217 32.31,58.309 32.415,58.322 32.415,58.416 32.521,58.43 32.521,58.521 32.628,58.535 32.628,58.628 32.734,58.643     32.734,58.734 32.841,58.748 32.841,58.841 32.945,58.854 32.945,58.947 33.053,58.961 33.053,59.053 33.159,59.066 33.159,59.16     33.266,59.174 33.266,59.266 33.372,59.279 33.372,59.372 33.479,59.386 33.479,59.479 33.585,59.492 33.585,59.585 33.691,59.6     33.691,59.691 33.797,59.705 33.797,59.797 33.902,59.811 33.902,59.902 34.01,59.917 34.01,60.01 34.116,60.023 34.116,60.116     34.223,60.13 34.223,60.223 34.329,60.236 34.329,60.329 34.436,60.343 34.436,60.436 34.542,60.449 34.542,60.541 34.646,60.555     34.646,60.646 34.754,60.661 34.754,60.754 34.859,60.768 34.859,60.859 34.967,60.874 34.967,60.967 35.073,60.98 35.073,61.073     35.18,61.087 35.18,61.18 35.286,61.193 35.286,61.285 35.393,61.299 35.393,61.393 35.498,61.404 35.498,61.498 35.605,61.512     35.605,61.604 35.711,61.617 35.711,61.711 35.816,61.725 35.816,61.816 35.924,61.831 35.924,61.924 36.029,61.938     36.029,62.029 36.137,62.043 36.137,62.137 36.242,62.15 36.242,62.242 36.35,62.256 36.35,62.35 36.455,62.361 36.455,62.455     36.563,62.469 36.563,62.563 36.668,62.575 36.668,62.668 36.773,62.682 36.773,62.773 36.881,62.788 36.881,62.881     36.986,62.895 36.986,62.986 37.093,63 37.093,63.093 37.199,63.105 37.199,63.199 37.307,63.213 37.307,63.307 37.412,63.318     37.412,63.412 37.518,63.426 37.518,63.52 37.625,63.532 37.625,63.625 37.73,63.639 37.73,63.73 37.837,63.744 37.837,63.837     37.943,63.852 37.943,63.943 38.05,63.957 38.05,64.05 38.156,64.063 38.156,64.156 38.264,64.17 38.264,64.264 38.369,64.275     38.369,64.369 38.477,64.383 38.477,64.475 38.582,64.488 38.582,64.582 38.688,64.596 38.688,64.688 38.794,64.701     38.794,64.794 38.9,64.809 38.9,64.9 39.007,64.914 39.007,65.007 39.113,65.021 39.113,65.113 39.221,65.127 39.221,65.221     39.326,65.232 39.326,65.326 39.432,65.34 39.432,65.432 39.538,65.445 39.538,65.538 39.645,65.552 39.645,65.645 39.751,65.658     39.751,65.751 39.857,65.766 39.857,65.857 39.963,65.871 39.963,65.964 40.07,65.979 40.07,66.07 40.176,66.084 40.176,66.176     40.282,66.189 40.282,66.282 40.389,66.296 40.389,66.389 40.495,66.402 40.495,66.495 40.602,66.509 40.602,66.602     40.707,66.615 40.707,66.708 40.814,66.723 40.814,66.814 40.92,66.828 40.92,66.92 41.025,66.934 41.025,67.025 41.133,67.04     41.133,67.133 41.238,67.146 41.238,67.239 41.346,67.253 41.346,67.346 41.452,67.359 41.452,67.452 41.559,67.465     41.559,67.559 41.665,67.572 41.665,67.664 41.771,67.678 41.771,67.771 41.877,67.785 41.877,67.877 41.982,67.891     41.982,67.982 42.09,67.997 42.09,68.09 42.195,68.104 42.195,68.195 42.303,68.21 42.303,68.302 42.409,68.314 42.409,68.409     42.516,68.422 42.516,68.516 42.621,68.529 42.621,68.621 42.729,68.635 42.729,68.729 42.834,68.741 42.834,68.834     42.939,68.848 42.939,68.939 43.047,68.954 43.047,69.047 43.152,69.061 43.152,69.152 43.26,69.167 43.26,69.259 43.365,69.271     43.365,69.365 43.473,69.379 43.473,69.473 43.578,69.484 43.578,69.578 43.686,69.592 43.686,69.686 43.791,69.698     43.791,69.791 43.896,69.805 43.896,69.896 44.004,69.911 44.004,70.003 44.109,70.016 44.109,70.109 44.216,70.123     44.216,70.216 44.322,70.229 44.322,70.322 44.43,70.336 44.43,70.43 44.535,70.441 44.535,70.535 44.641,70.549 44.641,70.641     44.747,70.654 44.747,70.747 44.854,70.761 44.854,70.854 44.96,70.867 44.96,70.96 45.066,70.975 45.066,71.066 45.173,71.08     45.173,71.173 45.279,71.188 45.279,71.279 45.387,71.293 45.387,71.385 45.491,71.398 45.491,71.491 45.6,71.505 45.6,71.6     45.704,71.611 45.704,71.704 45.811,71.718 45.811,71.811 45.917,71.824 45.917,71.917 46.023,71.932 46.023,72.023 46.13,72.037     46.13,72.129 46.236,72.143 46.236,72.236 46.342,72.25 46.342,72.342 46.448,72.355 46.448,72.448 46.555,72.462 46.555,72.555     46.661,72.568 46.661,72.661 46.768,72.675 46.768,72.768 46.874,72.781 46.874,72.874 46.98,72.889 46.98,72.98 47.086,72.994     47.086,73.086 47.191,73.1 47.191,73.191 47.299,73.206 47.299,73.299 47.404,73.313 47.404,73.404 47.512,73.419 47.512,73.512     47.618,73.525 47.618,73.618 47.725,73.632 47.725,73.725 47.83,73.738 47.83,73.83 47.938,73.844 47.938,73.938 48.043,73.95     48.043,74.043 48.148,74.057 48.148,74.148 48.256,74.163 48.256,74.256 48.361,74.27 48.361,74.361 48.469,74.376 48.469,74.469     48.575,74.482 48.575,74.574 48.682,74.588 48.682,74.682 48.787,74.693 48.787,74.787 48.895,74.801 48.895,74.895 49,74.907     49,75 61,76.5 61,74.982 61.087,74.994 61.087,75.086 61.191,75.1 61.191,75.191 61.299,75.206 61.299,75.299 61.404,75.313     61.404,75.404 61.512,75.419 61.512,75.512 61.618,75.525 61.618,75.618 61.725,75.632 61.725,75.725 61.83,75.738 61.83,75.83     61.938,75.844 61.938,75.938 62.043,75.95 62.043,76.043 62.148,76.057 62.148,76.148 62.256,76.163 62.256,76.256 62.361,76.27     62.361,76.361 62.468,76.375 62.468,76.469 62.575,76.482 62.575,76.575 62.682,76.588 62.682,76.682 62.787,76.695     62.787,76.787 62.895,76.801 62.895,76.895 63,76.908 63,77 79,79 79,65 78.895,65 78.895,64.895 78.787,64.895 78.787,64.787     78.682,64.787 78.682,64.682 78.574,64.682 78.574,64.574 78.469,64.574 78.469,64.469 78.361,64.469 78.361,64.361     78.256,64.361 78.256,64.256 78.148,64.256 78.148,64.148 78.043,64.148 78.043,64.043 77.938,64.043 77.938,63.938     77.831,63.938 77.831,63.831 77.725,63.831 77.725,63.725 77.618,63.725 77.618,63.618 77.512,63.618 77.512,63.512     77.404,63.512 77.404,63.404 77.299,63.404 77.299,63.299 77.191,63.299 77.191,63.191 77.086,63.191 77.086,63.087 76.98,63.087     76.98,63   "/></g></g><path d="M17,43l12,1.5V33H17V43z M17,31h12V19.5l-12,2V31z M31,45l16,2V33H31V45z M31,19v12h16V17  L31,19z" fill="#FFFFFF" id="Win8_2_"/></svg>